<?xml version="1.0" encoding="UTF-8" standalone="no"?>
<!DOCTYPE svg PUBLIC "-//W3C//DTD SVG 1.1//EN" "http://www.w3.org/Graphics/SVG/1.1/DTD/svg11.dtd">
<svg width="100%" height="100%" viewBox="0 0 462 456" version="1.1" xmlns="http://www.w3.org/2000/svg" xmlns:xlink="http://www.w3.org/1999/xlink" xml:space="preserve" xmlns:serif="http://www.serif.com/" style="fill-rule:evenodd;clip-rule:evenodd;">
    <g transform="matrix(1,0,0,1,-51.4327,-10.0282)">
        <g transform="matrix(1,0,0,1,18.104,19.604)">
            <path d="M488.896,329.397C466.896,326.397 431.896,306.397 426.896,303.397C421.896,300.397 398.896,275.397 386.896,256.397C374.896,237.397 363.896,214.397 359.896,201.397C355.896,188.397 351.896,175.397 350.896,168.397C349.896,161.397 351.896,144.897 354.896,137.897C347.896,132.897 333.896,131.897 327.896,144.897C321.896,157.897 316.896,177.897 316.896,190.897C316.896,203.897 338.896,245.897 324.896,251.897C310.896,257.897 307.896,265.897 235.896,247.897C163.896,229.897 133.896,227.897 126.896,241.897C119.896,255.897 160.896,261.897 182.896,265.897C204.896,269.897 254.917,288.531 247.896,297.897C243.546,303.699 238.521,302.385 227.187,306.385C207.576,313.307 207.879,316.351 183.396,324.73C158.963,333.092 160.553,356.956 168.229,360.96C175.905,364.964 182.245,367.302 214.615,348.947C228.965,343.607 246.397,340.062 261.73,338.729C277.063,337.396 286.398,394.729 303.064,403.396C319.73,412.063 339.063,411.396 351.063,411.396C363.063,411.396 369.729,413.397 376.396,410.063C383.063,406.729 401.73,411.395 411.73,416.729C411.73,416.729 450.397,435.396 453.73,439.396" style="fill:white;fill-rule:nonzero;stroke:black;stroke-width:3px;"/>
            <path d="M256.397,296.396C290.396,294.397 302.396,327.063 310.396,344.397" style="fill:none;fill-rule:nonzero;stroke:black;stroke-width:2px;"/>
            <path d="M328.063,271.062C328.397,296.396 339.064,317.73 353.396,325.728" style="fill:none;fill-rule:nonzero;stroke:black;stroke-width:2px;"/>
            <path d="M261.73,256.396C253.73,257.729 244.397,276.396 248.397,281.729" style="fill:none;fill-rule:nonzero;stroke:black;stroke-width:2px;"/>
            <path d="M219.063,245.729C213.73,249.729 203.063,259.062 205.73,264.396" style="fill:none;fill-rule:nonzero;stroke:black;stroke-width:2px;"/>
            <path d="M171.063,237.729C164.396,241.729 162.229,253.23 160.896,255.896" style="fill:none;fill-rule:nonzero;stroke:black;stroke-width:2px;"/>
            <path d="M244.397,305.73C252.397,309.73 256.397,323.062 253.73,332.396" style="fill:none;fill-rule:nonzero;stroke:black;stroke-width:2px;"/>
            <path d="M223.21,313.002C229.877,317.002 230.458,336.995 227.791,340.995" style="fill:none;fill-rule:nonzero;stroke:black;stroke-width:2px;"/>
            <path d="M197.762,324.199C206.41,330.684 207.353,339.733 202.851,350.665" style="fill:none;fill-rule:nonzero;stroke:black;stroke-width:2px;"/>
            <path d="M315.896,261.897C311.896,271.897 308.896,279.897 309.896,285.897" style="fill:none;fill-rule:nonzero;stroke:black;stroke-width:2px;"/>
            <path d="M316.896,190.897C328.843,192.604 319.573,194.149 341.896,189.897" style="fill:none;fill-rule:nonzero;stroke:black;stroke-width:2px;"/>
            <path d="M421.063,312.397C417.063,324.397 413.063,328.396 406.396,332.396" style="fill:none;fill-rule:nonzero;stroke:black;stroke-width:2px;"/>
            <path d="M321.73,400.064C337.635,396.883 349.064,394.731 357.73,392.064C366.396,389.397 379.062,382.063 382.396,375.397C385.73,368.731 383.063,367.398 381.063,362.731C379.063,358.064 357.064,360.731 351.73,362.731C346.396,364.731 341.73,366.731 319.73,370.064C297.73,373.397 291.73,375.064 280.396,373.73C271.104,372.636 281.731,396.063 286.397,398.73C291.063,401.397 291.73,406.064 321.73,400.064Z" style="fill:white;fill-rule:nonzero;stroke:black;stroke-width:3px;"/>
            <path d="M338.698,337.397C357.595,336.064 367.046,334.731 372.133,340.064C377.22,345.397 375.039,350.731 373.586,352.064C372.133,353.397 355.415,360.73 346.693,363.397C337.97,366.064 336.517,364.064 319.074,368.064C301.63,372.064 300.177,373.397 295.088,375.397C290,377.397 279.825,376.73 270.377,369.397C260.928,362.064 262.381,349.397 263.108,345.397C263.835,341.397 264.563,332.73 282.733,331.397C300.903,330.064 295.087,336.063 318.347,336.73C341.605,337.397 338.698,337.397 338.698,337.397Z" style="fill:white;fill-rule:nonzero;stroke:black;stroke-width:3px;"/>
            <path d="M267.729,344.064C265.806,361.369 268.838,362.23 278.396,369.397" style="fill:none;fill-rule:nonzero;stroke:black;stroke-width:2px;"/>
            <path d="M297.063,344.396C297.063,349.729 298.396,361.729 298.396,361.729" style="fill:none;fill-rule:nonzero;stroke:black;stroke-width:2px;"/>
            <path d="M330.063,342.729C330.063,345.396 331.397,356.062 331.397,360.062" style="fill:none;fill-rule:nonzero;stroke:black;stroke-width:2px;"/>
            <path d="M336.729,372.731C336.729,376.731 343.396,390.064 343.396,390.064" style="fill:none;fill-rule:nonzero;stroke:black;stroke-width:2px;"/>
            <path d="M304.396,380.397C305.729,383.064 307.063,395.063 311.063,396.397" style="fill:none;fill-rule:nonzero;stroke:black;stroke-width:2px;"/>
            <path d="M427.729,344.397C421.063,356.397 417.063,387.065 410.396,393.731" style="fill:none;fill-rule:nonzero;stroke:black;stroke-width:2px;"/>
        </g>
        <g transform="matrix(2,0,0,2,-330.06,-223.964)">
            <g>
                <g transform="matrix(0.99927,0.0381912,-0.0381912,0.99927,10.519,-13.2201)">
                    <path d="M351.29,268.72L330.19,140.93" style="fill:none;fill-rule:nonzero;stroke:black;stroke-width:3px;"/>
                    <g transform="matrix(0.162982,0.986629,-0.986629,0.162982,329.374,136)">
                        <path d="M16.07,-7.72L0,0L16.07,7.72L10.67,0L16.07,-7.72Z" style="fill-rule:nonzero;"/>
                    </g>
                </g>
                <g transform="matrix(0.99906,-0.0433542,0.0433542,0.99906,-11.3198,15.4826)">
                    <path d="M351.29,268.72L211.82,229.88" style="fill:none;fill-rule:nonzero;stroke:black;stroke-width:3px;"/>
                    <g transform="matrix(0.96335,0.268247,-0.268247,0.96335,207,228.541)">
                        <path d="M16.07,-7.72L0,0L16.07,7.72L10.67,0L16.07,-7.72Z" style="fill-rule:nonzero;"/>
                    </g>
                </g>
                <g>
                    <path d="M351.29,268.72L233.07,306.77" style="fill:none;fill-rule:nonzero;stroke:black;stroke-width:3px;"/>
                    <g transform="matrix(0.951916,-0.30636,0.30636,0.951916,228.309,308.297)">
                        <path d="M16.07,-7.72L0,0L16.07,7.72L10.67,0L16.07,-7.72Z" style="fill-rule:nonzero;"/>
                    </g>
                </g>
            </g>
        </g>
        <g transform="matrix(2,0,0,2,-330.06,-223.964)">
            <g transform="matrix(1,0,0,1,3.81066,2.82775)">
                <g>
                    <g>
                        <g transform="matrix(0.017,0,0,-0.017,325,129.5)">
                            <g>
                                <g>
                                    <g>
                                        <path d="M9,1C24,-7 40,-11 52,-11C85,-11 124,18 155,65L231,182L242,113C255,28 278,-11 314,-11C336,-11 368,6 400,35L449,79L440,98C404,68 379,53 363,53C348,53 335,63 325,83C316,102 305,139 300,168L282,269L317,318C364,383 391,406 422,406C438,406 450,398 455,383L469,387L484,472C472,479 463,482 454,482C414,482 374,446 312,354L275,299L269,347C257,446 230,482 171,482C145,482 123,474 114,461L56,378L73,368C103,402 123,416 142,416C175,416 197,375 214,277L225,215L185,153C142,86 108,54 80,54C65,54 54,58 52,63L41,91L21,88C21,53 13,27 9,1Z" style="fill-rule:nonzero;stroke:black;stroke-width:8px;"/>
                                    </g>
                                </g>
                            </g>
                        </g>
                        <g transform="matrix(1,0,0,1,325,111)">
                            <path d="M0,8.06L4.24,5.23L8.48,8.06" style="fill:none;fill-rule:nonzero;stroke:black;stroke-width:1px;"/>
                        </g>
                    </g>
                </g>
            </g>
            <g transform="matrix(1,0,0,1,1.80779,7.76123)">
                <g>
                    <g>
                        <g transform="matrix(0.017,0,0,-0.017,191,228.5)">
                            <g>
                                <g>
                                    <g>
                                        <path d="M-7,-180C-8,-187 -8,-193 -8,-198C-8,-241 29,-276 74,-276C180,-276 290,-152 349,33L490,473L479,482C450,471 427,465 405,463L370,331C358,284 323,211 290,162C255,111 206,67 184,67C172,67 163,90 164,115L180,322C182,353 184,391 184,419C184,464 177,482 160,482C147,482 133,475 85,442L3,386L14,368L64,398C69,401 80,410 89,410C103,410 111,391 111,358C111,357 111,351 110,343L93,100L92,60C92,18 110,-11 135,-11C172,-11 256,74 331,187L282,16C231,-161 181,-234 111,-234C76,-234 49,-207 49,-172C49,-167 50,-159 51,-150L41,-146L-7,-180Z" style="fill-rule:nonzero;stroke:black;stroke-width:8px;"/>
                                    </g>
                                </g>
                            </g>
                        </g>
                        <g transform="matrix(1,0,0,1,191,210)">
                            <path d="M0,8.06L4.24,5.23L8.48,8.06" style="fill:none;fill-rule:nonzero;stroke:black;stroke-width:1px;"/>
                        </g>
                    </g>
                </g>
            </g>
            <g transform="matrix(1,0,0,1,4.36635,-0.550856)">
                <g>
                    <g>
                        <g transform="matrix(0.017,0,0,-0.017,213,317.5)">
                            <g>
                                <g>
                                    <g>
                                        <path d="M31,148C26,97 20,62 9,16C47,-2 81,-11 116,-11C165,-11 211,7 262,47C313,87 334,124 334,174C334,228 302,257 228,271L185,279C125,290 106,307 106,348C106,401 151,442 208,442C249,442 287,424 303,397L303,342L326,342C330,377 334,404 345,455C306,474 278,482 245,482C193,482 132,452 84,404C58,377 47,352 47,316C47,260 78,228 144,215L207,203C251,195 267,177 267,138C267,73 221,29 150,29C115,29 84,40 56,64L56,148L31,148Z" style="fill-rule:nonzero;stroke:black;stroke-width:8px;"/>
                                    </g>
                                </g>
                            </g>
                        </g>
                        <g transform="matrix(1,0,0,1,213,299)">
                            <path d="M0,8.06L3.3,5.86L6.6,8.06" style="fill:none;fill-rule:nonzero;stroke:black;stroke-width:1px;"/>
                        </g>
                    </g>
                </g>
            </g>
        </g>
    </g>
</svg>
